<svg width="62" height="62" viewBox="0 0 150 150" fill="none" xmlns="http://www.w3.org/2000/svg">
<rect width="150" height="150" rx="24" fill="#ED8C20"/>
<path d="M74.5 38.4062C63.6432 38.4062 54.8125 47.2369 54.8125 58.0938C54.8125 59.9066 56.2809 61.375 58.0938 61.375C59.9066 61.375 61.375 59.9066 61.375 58.0938C61.375 50.8545 67.2648 44.9688 74.5 44.9688C76.3129 44.9688 77.7812 43.5004 77.7812 41.6875C77.7812 39.8746 76.3129 38.4062 74.5 38.4062ZM58.1061 116.166C58.1061 116.812 58.2968 117.441 58.6557 117.979L63.6821 125.534C64.2912 126.448 65.3166 126.998 66.4138 126.998H82.5842C83.6834 126.998 84.7088 126.448 85.3158 125.534L90.3423 117.979C90.6991 117.441 90.8898 116.81 90.8919 116.166L90.9021 107.31H58.0979L58.1061 116.166ZM74.5 22C53.5246 22 38.4062 39.0153 38.4062 58.0938C38.4062 67.1931 41.7798 75.4946 47.3395 81.8377C50.752 85.7321 56.1045 93.8963 58.0896 100.738V100.75H67.9334V100.725C67.9313 99.7472 67.7857 98.7751 67.4925 97.8399C66.3461 94.1875 62.8126 84.557 54.7428 75.349C50.5305 70.544 48.2787 64.4491 48.2603 58.0938C48.2192 42.9918 60.4973 31.8438 74.5 31.8438C88.9744 31.8438 100.75 43.6193 100.75 58.0938C100.75 64.445 98.4449 70.5728 94.2593 75.349C86.2387 84.4976 82.6888 94.1075 81.5239 97.7969C81.2233 98.7454 81.0698 99.7344 81.0687 100.729V100.75H90.9124V100.74C92.8976 93.8963 98.2501 85.7321 101.663 81.8397C107.22 75.4946 110.594 67.1931 110.594 58.0938C110.594 38.1602 94.4336 22 74.5 22Z" fill="white"/>
</svg>
