<svg width="62" height="62" viewBox="0 0 150 150" fill="none" xmlns="http://www.w3.org/2000/svg">
<rect width="150" height="150" rx="24" fill="#ED8C20"/>
<path d="M90.9063 74.5C86.6899 74.5 82.6129 72.6174 79.4219 69.2008C76.3191 65.8683 74.4242 61.4242 74.0899 56.691C73.7331 51.642 75.2732 46.999 78.4252 43.6152C81.5773 40.2314 85.9844 38.4062 90.9063 38.4062C95.7933 38.4062 100.213 40.2643 103.355 43.6398C106.527 47.0482 108.071 51.683 107.714 56.689C107.372 61.4283 105.479 65.8703 102.382 69.1987C99.1997 72.6174 95.1248 74.5 90.9063 74.5Z" fill="white"/>
<path d="M117.942 110.594H63.873C63.0037 110.598 62.1449 110.404 61.3627 110.024C60.5805 109.645 59.8958 109.091 59.3613 108.406C58.7942 107.662 58.4026 106.801 58.2158 105.885C58.029 104.969 58.0518 104.022 58.2825 103.117C60.0093 96.1829 64.2872 90.4325 70.6529 86.4889C76.3028 82.9902 83.4948 81.0625 90.9064 81.0625C98.4635 81.0625 105.467 82.9082 111.15 86.4048C117.53 90.3279 121.814 96.1111 123.532 103.129C123.76 104.035 123.78 104.982 123.592 105.897C123.403 106.813 123.009 107.674 122.441 108.416C121.907 109.098 121.224 109.649 120.444 110.027C119.664 110.404 118.808 110.598 117.942 110.594Z" fill="white"/>
<path d="M52.1464 75.3203C44.9297 75.3203 38.5846 68.6102 37.9961 60.364C37.7048 56.1394 39.0214 52.2326 41.6875 49.3677C44.3248 46.5314 48.0449 44.9688 52.1464 44.9688C56.248 44.9688 59.9394 46.5396 62.5911 49.3923C65.2776 52.2798 66.5901 56.1783 66.2825 60.3681C65.6939 68.6122 59.3508 75.3203 52.1464 75.3203Z" fill="white"/>
<path d="M65.6119 81.77C62.0046 80.0064 57.3227 79.1245 52.1485 79.1245C46.1069 79.1245 40.2397 80.6995 35.6254 83.5583C30.3939 86.8047 26.8747 91.5317 25.4535 97.2391C25.2455 98.06 25.2259 98.9173 25.396 99.7469C25.5661 100.576 25.9216 101.357 26.4359 102.03C26.9238 102.656 27.549 103.162 28.2632 103.509C28.9775 103.856 29.7618 104.035 30.5559 104.031H53.3195C53.7038 104.031 54.0758 103.896 54.3707 103.65C54.6657 103.404 54.8648 103.062 54.9335 102.684C54.9561 102.555 54.9848 102.425 55.0176 102.298C56.7566 95.3134 60.8316 89.4112 66.8526 85.1087C67.0741 84.9491 67.2522 84.7367 67.3709 84.4908C67.4895 84.245 67.5449 83.9734 67.5321 83.7007C67.5193 83.428 67.4386 83.1628 67.2974 82.9292C67.1562 82.6955 66.9589 82.5008 66.7234 82.3627C66.4015 82.174 66.0323 81.9751 65.6119 81.77Z" fill="white"/>
</svg>
