<svg width="62" height="62" viewBox="0 0 150 150" fill="none" xmlns="http://www.w3.org/2000/svg">
<rect width="150" height="150" rx="24" fill="#ED8C20"/>
<g clip-path="url(#clip0_101_6)">
<path d="M105.325 101.75C107.285 97.0453 107.81 91.8661 106.835 86.8636C105.86 81.8612 103.427 77.2587 99.8431 73.6349C100.829 71.1505 101.017 68.4204 100.379 65.8245C99.7411 63.2287 98.3101 60.8961 96.2849 59.1515L105.393 50.0431C106.622 48.8113 107.312 47.1424 107.312 45.4024C107.312 43.6625 106.622 41.9935 105.393 40.7617L96.1133 31.4817C94.8816 30.2525 93.2127 29.5622 91.4726 29.5622C89.7325 29.5622 88.0635 30.2525 86.8319 31.4817L43.61 74.7036C42.3813 75.9355 41.6913 77.6044 41.6913 79.3443C41.6913 81.0842 42.3813 82.7531 43.61 83.985L52.89 93.265C54.1218 94.494 55.7907 95.1842 57.5307 95.1842C59.2707 95.1842 60.9396 94.494 62.1714 93.265L77.839 77.5957C80.0606 80.1664 83.2064 81.7573 86.5936 82.023C89.9808 82.2888 93.3362 81.208 95.9315 79.0152C98.6288 82.1014 100.285 85.9589 100.666 90.04C101.046 94.1211 100.131 98.2184 98.0512 101.75H74.5V114.875H35.125V121.438H113.875V101.75H105.325ZM57.5297 88.625L48.25 79.3437L54.4145 73.1802L63.6948 82.4599L57.5297 88.625ZM74.5 68.9375C74.5048 69.7665 74.5885 70.5932 74.75 71.4063L68.3349 77.8199L59.0542 68.5401L91.4729 36.1214L100.753 45.4014L90.0932 56.0625C88.1945 55.6852 86.2357 55.7351 84.3587 56.2084C82.4817 56.6817 80.7336 57.5667 79.2409 58.7992C77.7482 60.0317 76.5484 61.5808 75.7284 63.3343C74.9084 65.0878 74.4888 67.0018 74.5 68.9375ZM87.625 75.5C86.3271 75.5 85.0583 75.1151 83.9791 74.394C82.8999 73.6729 82.0587 72.648 81.562 71.4489C81.0653 70.2497 80.9354 68.9302 81.1886 67.6572C81.4418 66.3842 82.0668 65.2149 82.9846 64.2971C83.9024 63.3793 85.0717 62.7543 86.3447 62.5011C87.6177 62.2479 88.9372 62.3778 90.1364 62.8745C91.3355 63.3712 92.3604 64.2124 93.0815 65.2916C93.8026 66.3708 94.1875 67.6396 94.1875 68.9375C94.1855 70.6774 93.4935 72.3454 92.2632 73.5757C91.0329 74.806 89.3649 75.498 87.625 75.5ZM107.312 114.875H81.0625V108.313H107.312V114.875Z" fill="white"/>
</g>
<defs>
<clipPath id="clip0_101_6">
<rect width="105" height="105" fill="white" transform="translate(22 23)"/>
</clipPath>
</defs>
</svg>
