<svg width="150" height="150" viewBox="0 0 150 150" fill="none" xmlns="http://www.w3.org/2000/svg">
<rect width="150" height="150" rx="24" fill="#ED8C20"/>
<path d="M103.621 38.7836C95.3456 32.1623 85.0615 28.5573 74.4631 28.5625C61.9697 28.5625 50.3008 33.3757 41.5767 42.1161C33.146 50.5735 28.5256 61.74 28.5625 73.5505C28.5628 82.2095 31.1049 90.678 35.8735 97.9056L35.9125 97.9609C35.9699 98.045 36.0294 98.1291 36.0888 98.2111C36.1483 98.2932 36.2221 98.3998 36.2386 98.4265L36.2837 98.5085C36.5154 98.9187 36.6938 99.419 36.5359 99.9235L32.7584 113.594C32.6073 114.102 32.5245 114.629 32.5123 115.159C32.5096 116.554 33.06 117.893 34.043 118.882C35.026 119.872 36.3613 120.431 37.7561 120.438C38.4932 120.413 39.2195 120.254 39.8992 119.968L53.7399 114.972L53.9142 114.904C54.2907 114.746 54.6953 114.666 55.1037 114.669C55.4802 114.67 55.8534 114.739 56.205 114.874C56.5372 115.003 59.5539 116.158 62.7367 117.048C65.3822 117.786 70.8865 118.893 75.1993 118.893C87.4322 118.893 98.8551 114.156 107.362 105.551C115.795 97.0114 120.437 85.6604 120.437 73.5751C120.439 70.4729 120.11 67.3793 119.457 64.3466C117.337 54.3757 111.713 45.2948 103.621 38.7836ZM54.8125 81.0625C53.5145 81.0625 52.2457 80.6776 51.1665 79.9565C50.0873 79.2354 49.2462 78.2105 48.7495 77.0114C48.2528 75.8122 48.1229 74.4927 48.3761 73.2197C48.6293 71.9467 49.2543 70.7774 50.1721 69.8596C51.0899 68.9418 52.2592 68.3168 53.5322 68.0636C54.8052 67.8104 56.1247 67.9403 57.3238 68.437C58.523 68.9337 59.5479 69.7749 60.269 70.8541C60.9901 71.9333 61.375 73.2021 61.375 74.5C61.375 76.2405 60.6836 77.9097 59.4529 79.1404C58.2222 80.3711 56.553 81.0625 54.8125 81.0625ZM74.5 81.0625C73.202 81.0625 71.9332 80.6776 70.854 79.9565C69.7749 79.2354 68.9337 78.2105 68.437 77.0114C67.9403 75.8122 67.8104 74.4927 68.0636 73.2197C68.3168 71.9467 68.9418 70.7774 69.8596 69.8596C70.7774 68.9418 71.9467 68.3168 73.2197 68.0636C74.4927 67.8104 75.8122 67.9403 77.0113 68.437C78.2105 68.9337 79.2354 69.7749 79.9565 70.8541C80.6776 71.9333 81.0625 73.2021 81.0625 74.5C81.0625 76.2405 80.3711 77.9097 79.1404 79.1404C77.9097 80.3711 76.2405 81.0625 74.5 81.0625ZM94.1875 81.0625C92.8895 81.0625 91.6207 80.6776 90.5415 79.9565C89.4623 79.2354 88.6212 78.2105 88.1245 77.0114C87.6278 75.8122 87.4979 74.4927 87.7511 73.2197C88.0043 71.9467 88.6293 70.7774 89.5471 69.8596C90.4649 68.9418 91.6342 68.3168 92.9072 68.0636C94.1802 67.8104 95.4997 67.9403 96.6988 68.437C97.898 68.9337 98.9229 69.7749 99.644 70.8541C100.365 71.9333 100.75 73.2021 100.75 74.5C100.75 76.2405 100.059 77.9097 98.8279 79.1404C97.5972 80.3711 95.928 81.0625 94.1875 81.0625Z" fill="white"/>
</svg>
