<svg width="62" height="62" viewBox="0 0 150 150" fill="none" xmlns="http://www.w3.org/2000/svg">
<rect width="150" height="150" rx="24" fill="#ED8C20"/>
<path d="M105.125 62.6874V43.8749C105.125 41.4687 103.156 39.4999 100.75 39.4999H96.3749C93.9686 39.4999 91.9999 41.4687 91.9999 43.8749V50.8749L77.4311 37.7499C75.7686 36.2624 73.2311 36.2624 71.5686 37.7499L34.9936 70.6937C33.5061 72.0062 34.4249 74.4999 36.4374 74.4999H43.8749V105.125C43.8749 107.531 45.8436 109.5 48.2499 109.5H61.3749C63.7811 109.5 65.7499 107.531 65.7499 105.125V83.2499H83.2499V105.125C83.2499 107.531 85.2186 109.5 87.6249 109.5H100.75C103.156 109.5 105.125 107.531 105.125 105.125V74.4999H112.562C114.575 74.4999 115.537 72.0062 114.006 70.6937L105.125 62.6874ZM65.7499 65.7499C65.7499 60.9374 69.6874 56.9999 74.4999 56.9999C79.3124 56.9999 83.2499 60.9374 83.2499 65.7499H65.7499Z" fill="white"/>
</svg>
