<svg width="150" height="150" viewBox="0 0 150 150" fill="none" xmlns="http://www.w3.org/2000/svg">
<rect width="150" height="150" rx="24" fill="#ED8C20"/>
<path d="M83.25 48.25H39.5C37.0937 48.25 35.125 50.2188 35.125 52.625C35.125 55.0313 37.0937 57 39.5 57H83.25C85.6563 57 87.625 55.0313 87.625 52.625C87.625 50.2188 85.6563 48.25 83.25 48.25ZM83.25 65.75H39.5C37.0937 65.75 35.125 67.7188 35.125 70.125C35.125 72.5313 37.0937 74.5 39.5 74.5H83.25C85.6563 74.5 87.625 72.5313 87.625 70.125C87.625 67.7188 85.6563 65.75 83.25 65.75ZM39.5 92H65.75C68.1563 92 70.125 90.0313 70.125 87.625C70.125 85.2188 68.1563 83.25 65.75 83.25H39.5C37.0937 83.25 35.125 85.2188 35.125 87.625C35.125 90.0313 37.0937 92 39.5 92ZM105.125 48.25C100.312 48.25 96.375 52.1875 96.375 57V84.0375C95.0187 83.5563 93.5312 83.25 92 83.25C83.95 83.25 77.65 90.425 79.0938 98.7375C80.0125 104.031 84.3438 108.363 89.6375 109.281C97.95 110.725 105.125 104.425 105.125 96.375V57H113.875C116.281 57 118.25 55.0313 118.25 52.625C118.25 50.2188 116.281 48.25 113.875 48.25H105.125Z" fill="white"/>
</svg>
